<?xml version="1.0" encoding="utf-8"?>
<svg viewBox="0 0 500 500" xmlns="http://www.w3.org/2000/svg">
  <path d="M 407.886 336.189 L 440.824 319.135 L 449.653 335.331 L 416.303 353.63 L 261.117 353.63 L 261.117 391.375 L 457.714 391.427 L 457.655 477.255 L 439.068 477.309 L 439.103 410.077 L 64.43 410.059 L 64.378 477.225 L 45.856 477.265 L 45.877 391.564 L 242.661 391.31 L 242.617 353.613 L 87.082 353.756 L 53.358 335.537 L 62.042 319.201 L 94.908 336.507 L 251.514 39.772 Z M 95.326 337.857 L 62.458 320.549 L 54.708 335.129 L 87.334 352.756 L 243.615 352.613 L 243.663 392.308 L 46.877 392.562 L 46.856 476.263 L 63.378 476.227 L 63.43 409.059 L 440.103 409.077 L 440.068 476.307 L 456.655 476.257 L 456.714 392.427 L 260.117 392.375 L 260.117 352.63 L 416.047 352.63 L 448.297 334.935 L 440.414 320.473 L 407.464 337.533 L 251.514 41.914 Z" style=""/>
  <path style="stroke: rgb(0, 0, 0); fill-rule: nonzero; fill: rgba(4, 4, 4, 0); filter: none;" d="M 251.528 79.114 L 387.153 335.461 L 115.745 335.523 L 251.528 79.114 Z"/>
</svg>